# AST/ASF file generated using VICON BodyLanguage
# -----------------------------------------------
:version 1.10
:name VICON
:units
  mass 1.0
  length 0.45
  angle deg
:documentation
   .ast/.asf automatically generated from VICON data using
   VICON BodyBuilder and BodyLanguage model FoxedUp or BRILLIANT.MOD
:root
   order TX TY TZ RX RY RZ
   axis XYZ
   position 0 0 0  
   orientation 0 -0 0 
:bonedata
  begin
     id 1 
     name lhipjoint
     direction 0.515797 -0.759363 0.396637 
     length 2.47888 
     axis 0 -0 0  XYZ
  end
  begin
     id 2 
     name lfemur
     direction 0.34202 -0.939693 0  
     length 6.81885  
     axis 0 -0 20  XYZ
    dof rx ry rz
    limits (-160.0 20.0)
           (-70.0 70.0)
           (-60.0 70.0)
  end
  begin
     id 3 
     name ltibia
     direction 0.342037 -0.939687 0   
     length 7.89258   
     axis 0 -0 20   XYZ
    dof rx
    limits (-10.0 170.0)
  end
  begin
     id 4 
     name lfoot
     direction 0.173497 -0.476678 0.861787   
     length 2.51543   
     axis -90 -1.13533e-015 20   XYZ
    dof rx rz
    limits (-45.0 90.0)
           (-70.0 20.0)
  end
  begin
     id 5 
     name ltoes
     direction 1.53564e-011 -4.21897e-011 1   
     length 1.21388   
     axis -90 -1.13533e-015 20   XYZ
    dof rx
    limits (-90.0 20.0)
  end
  begin
     id 6 
     name rhipjoint
     direction -0.489454 -0.772941 0.403729   
     length 2.43534  
     axis 0 -0 0  XYZ 
  end
  begin
     id 7 
     name rfemur
     direction -0.34202 -0.939693 0   
     length 7.10357   
     axis 0 -0 -20   XYZ
    dof rx ry rz
    limits (-160.0 20.0)
           (-70.0 70.0)
           (-70.0 60.0)
  end
  begin
     id 8 
     name rtibia
     direction -0.34202 -0.939693 0   
     length 9.16127   
     axis 0 -0 -20   XYZ
    dof rx
    limits (-10.0 170.0)
 end
 begin
     id 9 
     name rfoot
     direction -0.270974 -0.748671 0.605033   
     length 1.74894  
     axis -90 1.13533e-015 -20   XYZ
    dof rx rz
    limits (-45.0 90.0)
           (-20.0 70.0)
  end
  begin
     id 10 
     name rtoes
     direction -1.53557e-011 -4.21759e-011 1   
     length 0.787585   
     axis -90 1.13533e-015 -20   XYZ
    dof rx
    limits (-90.0 20.0)
  end
  begin
     id 11 
     name lowerback
     direction -0.0140249 0.999561 0.0260968   
     length 2.16963   
     axis 0 -0 0   XYZ
    dof rx ry rz
    limits (-20.0 45.0)
           (-30.0 30.0)
           (-30.0 30.0)
  end
  begin
     id 12 
     name upperback
     direction 0.00860018 0.999959 -0.002711   
     length 2.1726   
     axis 0 -0 0   XYZ
    dof rx ry rz
    limits (-20.0 45.0)
           (-30.0 30.0)
           (-30.0 30.0)
  end
  begin
     id 13 
     name thorax
     direction 0.015211 0.999782 -0.0143191   
     length 2.17061   
     axis 0 -0 0   XYZ
    dof rx ry rz
    limits (-20.0 45.0)
           (-30.0 30.0)
           (-30.0 30.0)
  end
  begin
     id 14 
     name lowerneck
     direction -0.0140143 0.999447 0.030145   
     length 2.26749   
     axis 0 -0 0   XYZ
    dof rx ry rz
    limits (-20.0 45.0)
           (-30.0 30.0)
           (-30.0 30.0)
  end
  begin
     id 15 
     name upperneck
     direction 0.118062 0.961438 -0.248392   
     length 2.22728   
     axis 0 -0 0   XYZ
    dof rx ry rz
    limits (-20.0 45.0)
           (-30.0 30.0)
           (-30.0 30.0)
  end
  begin
     id 16
     name head
     direction 0.0431885 0.9954 -0.085514  
     length 2.28786  
     axis 0 -0 0   XYZ
    dof rx ry rz
    limits (-20.0 45.0)
           (-30.0 30.0)
           (-30.0 30.0)
  end
  begin
     id 17 
     name lclavicle
     direction 0.912126 0.409548 0.0172323  
     length 4.31571  
     axis 0 -0 0   XYZ
    dof ry rz
    limits (-20.0 10.0)
           (0.0 20.0)
  end
  begin
     id 18 
     name lhumerus
     direction 1 -4.48977e-011 1.93091e-027   
     length 5.13658   
     axis 180 -30 -90   XYZ
    dof rx ry rz
    limits (-60.0 90.0)
           (-90.0 90.0)
           (-90.0 90.0)
  end
  begin
     id 19
     name lradius
     direction 1 -4.48916e-011 6.84018e-027   
     length 3.22473   
     axis 180 -30 -90   XYZ
    dof rx
    limits (-10.0 170.0)
  end
  begin
     id 20
     name lwrist
     direction 1 -4.48987e-011 7.01981e-027   
     length 1.61236   
     axis -4.37994e-015 90 90   XYZ
    dof ry
    limits (-180.0 0.0)
 end
  begin
     id 21 
     name lhand
     direction 1 -4.49037e-011 1.40335e-026   
     length 0.936406   
     axis -8.96029e-015 90 90   XYZ
    dof rx rz
    limits (-90.0 90.0)
           (-45.0 45.0)
  end
  begin
     id 22 
     name lfingers
     direction 1 -4.48886e-011 2.8104e-026   
     length 0.754955   
     axis -1.79203e-014 90 90   XYZ
    dof rx
    limits (0.0 90.0)
  end
  begin
     id 23
     name lthumb
     direction 0.707107 -6.34937e-011 0.707107   
     length 1.08397   
     axis -90 45 -4.48555e-014   XYZ
    dof rx rz
    limits (-45.0 45.0)
           (-45.0 45.0)
  end
  begin
     id 24 
     name rclavicle
     direction -0.947962 0.317997 0.0156638   
     length 4.86918  
     axis 0 -0 0   XYZ 
    dof ry rz
    limits (-10.0 20.0)
           (-20.0 0.0)
  end
  begin
     id 25 
     name rhumerus
     direction -1 -4.48951e-011 2.80534e-018  
     length 5.60911   
     axis 180 30 90   XYZ
    dof rx ry rz
    limits (-90.0 60.0)
           (-90.0 90.0)
           (-90.0 90.0)
  end
  begin
     id 26 
     name rradius
     direction -1 -4.4898e-011 2.11315e-027   
     length 3.38704   
     axis 180 30 90   XYZ
    dof rx
    limits (-10.0 170.0)
  end
  begin
     id 27 
     name rwrist
     direction -1 -4.48933e-011 7.02314e-027   
     length 1.69352   
     axis -4.37994e-015 -90 -90   XYZ
    dof ry
    limits (-180.0 0.0)
  end
  begin
     id 28
     name rhand
     direction -1 -4.48937e-011 1.40458e-026   
     length 0.755878   
     axis -8.96029e-015 -90 -90   XYZ
    dof rx rz
    limits (-90.0 90.0)
           (-45.0 45.0)
  end
  begin
     id 29
     name rfingers
     direction -1 -4.4901e-011 2.80737e-026   
     length 0.609409   
     axis -1.79203e-014 -90 -90   XYZ
    dof rx
    limits (0.0 90.0)
  end
  begin
     id 30
     name rthumb
     direction -0.707107 -6.34968e-011 0.707107   
     length 0.874992   
     axis -90 -45 4.48555e-014   XYZ
    dof rx rz
    limits (-45.0 45.0)
           (-45.0 45.0)
  end
:hierarchy
  begin
    root lhipjoint rhipjoint lowerback
    lhipjoint lfemur
    lfemur ltibia
    ltibia lfoot
    lfoot ltoes
    rhipjoint rfemur
    rfemur rtibia
    rtibia rfoot
    rfoot rtoes
    lowerback upperback
    upperback thorax
    thorax lowerneck lclavicle rclavicle
    lowerneck upperneck
    upperneck head
    lclavicle lhumerus
    lhumerus lradius
    lradius lwrist
    lwrist lhand lthumb
    lhand lfingers
    rclavicle rhumerus
    rhumerus rradius
    rradius rwrist
    rwrist rhand rthumb
    rhand rfingers
  end

#!OML:ASF C:\ViconDB\ViconDB\414\Spring2016\041811\Spring2016.ASF
:FULLY-SPECIFIED
:DEGREES
93
root 11.2386 17.7284 18.959 -8.25476 -86.0581 9.07826
lowerback 3.48147 -0.939382 -4.75343
upperback 0.5614 -1.44256 -0.21984
thorax -1.26335 -0.705697 2.50256
lowerneck 5.95273 -12.3559 -27.729
upperneck 14.3333 -23.4234 27.8763
head 10.5217 -12.2922 12.0793
rclavicle 6.93262e-015 3.97569e-016
rhumerus -0.899322 -25.982 -0.956932
rradius 67.7122
rwrist 16.3399
rhand -55.8519 -22.5574
rfingers 7.12502
rthumb -28.1947 -50.4568
lclavicle 6.93262e-015 3.97569e-016
lhumerus -9.3403 9.16815 3.30557
lradius 44.8355
lwrist 5.65158
lhand -45.065 36.6884
lfingers 7.12502
lthumb -17.8462 65.8895
rfemur 167.076 25.4745 -179.349
rtibia 31.7956
rfoot -5.06569 -46.6565
rtoes -27.5482
lfemur -15.3605 -2.23376 -10.1276
ltibia 41.1866
lfoot -27.8046 4.39199
ltoes -16.2501
94
root 11.2459 17.7331 18.9676 -5.47022 -85.9522 6.36084
lowerback 3.49508 -0.950245 -4.52852
upperback 0.563888 -1.44722 -0.140299
thorax -1.27153 -0.708325 2.45891
lowerneck 5.98109 -12.3776 -27.7358
upperneck 14.1764 -23.4483 27.9922
head 10.4908 -12.3032 12.1182
rclavicle -1.74682e-014 -5.56597e-015
rhumerus -0.87458 -26.1182 -0.994341
rradius 67.5762
rwrist 16.5646
rhand -55.8105 -23.2586
rfingers 7.12502
rthumb -28.1551 -51.1645
lclavicle -1.74682e-014 -5.56597e-015
lhumerus -9.3671 9.35107 3.29381
lradius 44.686
lwrist 5.40216
lhand -44.9446 36.7321
lfingers 7.12502
lthumb -17.7303 65.9438
rfemur 167.185 25.5544 -179.166
rtibia 31.7069
rfoot -4.95204 -46.6373
rtoes -27.4503
lfemur -15.5014 -2.23099 -9.96164
ltibia 41.2032
lfoot -27.8046 4.39199
ltoes -16.2501
95
root 11.253 17.7331 18.9756 -9.64574 -85.807 10.6364
lowerback 3.4973 -0.939148 -4.81201
upperback 0.542575 -1.44527 -0.194724
thorax -1.28927 -0.705719 2.56194
lowerneck 6.02551 -12.4009 -27.727
upperneck 14.0591 -23.4676 28.0312
head 10.4528 -12.3122 12.1248
rclavicle -4.57205e-015 -1.59028e-015
rhumerus -0.932898 -26.2006 -0.991026
rradius 67.5323
rwrist 16.5819
rhand -55.8428 -23.2005
rfingers 7.12502
rthumb -28.186 -51.1013
lclavicle -4.57205e-015 -1.59028e-015
lhumerus -9.42362 9.2554 3.27972
lradius 44.7612
lwrist 5.78244
lhand -45.1073 36.7084
lfingers 7.12502
lthumb -17.8869 65.9059
rfemur 167.353 26.4815 -179.454
rtibia 31.6199
rfoot -6.17561 -46.8249
rtoes -27.8334
lfemur -15.6353 -2.2784 -10.3616
ltibia 41.2052
lfoot -27.8046 4.39199
ltoes -16.2501
96
root 11.2587 17.7378 18.986 -9.92119 -85.7503 11.0652
lowerback 3.43421 -0.924526 -4.77337
upperback 0.489168 -1.42134 -0.177004
thorax -1.31129 -0.69216 2.55688
lowerneck 6.10574 -12.4236 -27.7462
upperneck 13.9589 -23.5063 28.0763
head 10.426 -12.3358 12.1386
rclavicle 2.92089e-014 -1.59028e-015
rhumerus -0.970347 -26.2237 -0.966375
rradius 67.5102
rwrist 16.5089
rhand -55.8085 -23.1381
rfingers 7.12502
rthumb -28.1532 -51.0444
lclavicle 2.92089e-014 -1.59028e-015
lhumerus -9.40646 9.48082 3.32698
lradius 44.5772
lwrist 5.45481
lhand -44.9247 36.5795
lfingers 7.12502
lthumb -17.7112 65.7929
rfemur 167.569 25.851 -179.537
rtibia 31.4986
rfoot -5.18627 -46.6704
rtoes -27.9102
lfemur -15.8219 -2.19768 -10.4594
ltibia 41.1832
lfoot -27.8046 4.39199
ltoes -16.2501
97
root 11.2669 17.7447 18.993 -11.5164 -85.6147 12.8143
lowerback 3.4299 -0.926661 -4.86169
upperback 0.415482 -1.42981 -0.212361
thorax -1.38287 -0.692934 2.57116
lowerneck 6.17386 -12.4492 -27.7287
upperneck 13.9039 -23.5587 28.1114
head 10.4152 -12.3645 12.1406
rclavicle -1.84497e-014 -4.37326e-015
rhumerus -0.998485 -26.214 -1.02589
rradius 67.5259
rwrist 16.4233
rhand -55.8548 -23.4395
rfingers 7.12502
rthumb -28.1974 -51.3384
lclavicle -1.84497e-014 -4.37326e-015
lhumerus -9.48328 9.3347 3.21141
lradius 44.5735
lwrist 5.52707
lhand -44.9878 36.7929
lfingers 7.12502
lthumb -17.7719 66.0008
rfemur 167.823 26.4038 -179.61
rtibia 31.386
rfoot -5.83664 -46.7388
rtoes -27.9872
lfemur -16.001 -2.15787 -10.6624
ltibia 41.1455
lfoot -28.2644 3.09294
ltoes -15.1324
98
root 11.2697 17.7516 18.9973 -12.0674 -85.5343 13.4247
lowerback 3.43156 -0.916667 -4.91859
upperback 0.386574 -1.41899 -0.191516
thorax -1.41254 -0.685833 2.62447
lowerneck 6.21031 -12.5019 -27.7136
upperneck 13.9022 -23.627 28.0433
head 10.4164 -12.3967 12.0925
rclavicle 2.67117e-015 1.2921e-014
rhumerus -0.966407 -26.4086 -1.12314
rradius 67.4475
rwrist 16.5885
rhand -55.7566 -22.8306
rfingers 7.12502
rthumb -28.1035 -50.745
lclavicle 2.67117e-015 1.2921e-014
lhumerus -9.55397 9.30062 3.19327
lradius 44.5903
lwrist 5.51719
lhand -44.9812 36.805
lfingers 7.12502
lthumb -17.7655 66.0135
rfemur 167.914 25.4088 -179.766
rtibia 31.2479
rfoot -4.47415 -46.4895
rtoes -28.2418
lfemur -15.9972 -2.45841 -10.7932
ltibia 41.063
lfoot -28.3575 3.37825
ltoes -15.1638
99
root 11.2739 17.7596 19.0024 -12.8364 -85.4471 14.2746
lowerback 3.4003 -0.91689 -4.94651
upperback 0.357699 -1.41962 -0.209592
thorax -1.4245 -0.685192 2.62121
lowerneck 6.51254 -12.4664 -27.8015
upperneck 13.5907 -23.6395 28.2949
head 10.3105 -12.4317 12.2237
rclavicle -2.67117e-015 -8.94531e-015
rhumerus -0.999132 -26.4551 -1.21196
rradius 67.4768
rwrist 16.5087
rhand -55.7719 -22.7991
rfingers 7.12502
rthumb -28.1182 -50.7111
lclavicle -2.67117e-015 -8.94531e-015
lhumerus -9.594 9.466 3.12377
lradius 44.5102
lwrist 5.45888
lhand -44.9873 36.5073
lfingers 7.12502
lthumb -17.7714 65.7152
rfemur 168.065 24.9694 -179.875
rtibia 31.1094
rfoot -3.8775 -46.3538
rtoes -28.4608
lfemur -16.0349 -2.44337 -10.9152
ltibia 40.9672
lfoot -28.3399 3.35552
ltoes -15.2008
100
root 11.2774 17.762 19.0069 -14.2423 -85.395 15.7452
lowerback 3.36169 -0.904311 -5.04736
upperback 0.343406 -1.40479 -0.209096
thorax -1.41639 -0.677172 2.67696
lowerneck 6.64123 -12.4728 -27.8601
upperneck 13.4569 -23.6595 28.3499
head 10.264 -12.4527 12.2552
rclavicle 1.10077e-014 -2.06736e-014
rhumerus -0.945913 -26.5126 -1.30085
rradius 67.5181
rwrist 16.4227
rhand -55.8114 -23.1537
rfingers 7.12502
rthumb -28.156 -51.0595
lclavicle 1.10077e-014 -2.06736e-014
lhumerus -9.70917 9.36616 3.07859
lradius 44.5232
lwrist 5.46719
lhand -44.9911 36.7768
lfingers 7.12502
lthumb -17.7751 65.9844
rfemur 168.197 24.7017 -180.016
rtibia 30.9881
rfoot -3.38301 -46.2398
rtoes -28.2415
lfemur -15.9619 -2.94999 -11.1037
ltibia 40.8277
lfoot -28.5052 3.64859
ltoes -14.9706
101
root 11.277 17.7741 19.0133 -16.4865 -85.4123 18.0603
lowerback 3.31029 -0.86743 -5.14251
upperback 0.294537 -1.35864 -0.259231
thorax -1.44084 -0.652274 2.67625
lowerneck 6.74036 -12.5078 -27.8689
upperneck 13.4439 -23.7284 28.314
head 10.2588 -12.4933 12.2306
rclavicle 5.32991e-015 3.77691e-015
rhumerus -0.924938 -26.5201 -1.40585
rradius 67.5417
rwrist 16.3878
rhand -55.7744 -22.9462
rfingers 7.12502
rthumb -28.1206 -50.8578
lclavicle 5.32991e-015 3.77691e-015
lhumerus -9.79068 9.31473 2.98227
lradius 44.5096
lwrist 5.57769
lhand -45.0938 36.8678
lfingers 7.12502
lthumb -17.874 66.0665
rfemur 168.385 24.3506 -180.193
rtibia 30.8694
rfoot -3.36846 -46.1393
rtoes -29.1105
lfemur -15.9274 -3.10667 -11.384
ltibia 40.6884
lfoot -28.6031 4.055
ltoes -14.9704
102
root 11.2772 17.7805 19.0188 -17.8886 -85.4041 19.5449
lowerback 3.24949 -0.845342 -5.18019
upperback 0.232305 -1.32928 -0.290346
thorax -1.47327 -0.635442 2.66361
lowerneck 6.88236 -12.5177 -27.9056
upperneck 13.414 -23.7778 28.3132
head 10.2433 -12.5307 12.2345
rclavicle -8.70925e-015 2.04748e-014
rhumerus -0.944424 -26.4366 -1.46555
rradius 67.5886
rwrist 16.298
rhand -55.8283 -21.9318
rfingers 7.12502
rthumb -28.1722 -49.8349
lclavicle -8.70925e-015 2.04748e-014
lhumerus -9.80247 9.4164 2.95486
lradius 44.3971
lwrist 5.24712
lhand -45.0326 36.9274
lfingers 7.12502
lthumb -17.815 66.1314
rfemur 168.55 23.9998 -180.313
rtibia 30.7623
rfoot -3.00269 -46.0447
rtoes -29.3274
lfemur -15.8795 -3.40242 -11.5777
ltibia 40.5424
lfoot -28.8088 4.40805
ltoes -14.8471
103
root 11.2777 17.7846 19.0219 -19.9508 -85.4002 21.6625
lowerback 3.18497 -0.813364 -5.28725
upperback 0.232019 -1.28796 -0.341263
thorax -1.43975 -0.615394 2.66817
lowerneck 6.92063 -12.5531 -27.892
upperneck 13.3625 -23.8329 28.335
head 10.2389 -12.5581 12.228
rclavicle 1.39149e-014 2.5842e-015
rhumerus -0.930581 -26.528 -1.60432
rradius 67.6874
rwrist 16.4118
rhand -55.8548 -22.4971
rfingers 7.12502
rthumb -28.1975 -50.396
lclavicle 1.39149e-014 2.5842e-015
lhumerus -9.9149 9.35762 2.81904
lradius 44.4432
lwrist 5.39683
lhand -45.0502 36.5218
lfingers 7.12502
lthumb -17.832 65.7242
rfemur 168.677 23.5084 -180.495
rtibia 30.6577
rfoot -2.25398 -45.8962
rtoes -28.9687
lfemur -15.8001 -3.66791 -11.8066
ltibia 40.3995
lfoot -29.023 4.74027
ltoes -14.7939
104
root 11.2767 17.7908 19.0277 -21.0447 -85.383 22.8181
lowerback 3.08001 -0.806206 -5.31171
upperback 0.226394 -1.27255 -0.335119
thorax -1.3873 -0.608738 2.68562
lowerneck 6.97486 -12.5668 -28.0228
upperneck 13.3322 -23.8791 28.3842
head 10.2622 -12.5902 12.2627
rclavicle 1.03617e-014 1.15295e-014
rhumerus -0.883824 -26.5078 -1.62264
rradius 67.6379
rwrist 16.4622
rhand -55.9405 -23.1725
rfingers 7.12502
rthumb -28.2794 -51.0579
lclavicle 1.03617e-014 1.15295e-014
lhumerus -10.092 9.2433 2.73351
lradius 44.5095
lwrist 5.41478
lhand -45.0802 36.8112
lfingers 7.12502
lthumb -17.8609 66.011
rfemur 168.805 23.1673 -180.598
rtibia 30.557
rfoot -1.88814 -45.7619
rtoes -29.1602
lfemur -15.7057 -4.22542 -12.0003
ltibia 40.2599
lfoot -29.2234 5.26023
ltoes -14.7229
